<svg width="17" height="19" viewBox="0 0 17 19" fill="none" xmlns="http://www.w3.org/2000/svg">
<path d="M16.4319 10.3508C16.0762 9.9998 15.6047 9.80646 15.1044 9.80646C14.7339 9.80646 14.0421 9.91487 13.5728 10.641C13.3113 11.0458 12.536 12.2735 12.5322 12.2797C12.5296 12.2837 12.2546 12.6679 12.0088 12.5934C11.7315 12.5085 11.6354 12.3728 11.6544 12.0932C11.8035 9.90097 12.511 4.90807 12.5189 4.8522C12.6326 3.97179 12.0086 3.16299 11.1258 3.04905C11.0547 3.04016 10.9853 3.03567 10.9197 3.03567C10.7069 3.03567 10.5024 3.07777 10.3148 3.15454L10.3869 2.52517C10.4426 2.09916 10.3286 1.67683 10.0662 1.33608C9.80345 0.994899 9.42359 0.776658 8.99514 0.721404C8.92308 0.712342 8.85576 0.707947 8.78942 0.707947C7.98341 0.707947 7.29741 1.31179 7.19296 2.11909L6.6489 6.87174L5.57169 3.06925C5.38119 2.3697 4.74262 1.88113 4.01878 1.88113C3.87633 1.88113 3.73351 1.90045 3.59474 1.93846C2.73839 2.17226 2.23154 3.05905 2.46623 3.91976L2.73698 4.87396C2.49378 4.82345 2.22926 4.83076 1.98771 4.89698C1.56878 5.01133 1.22042 5.28257 1.00667 5.66063C0.795485 6.03438 0.743122 6.46664 0.85928 6.87775C1.29432 8.41755 1.58717 9.92609 1.8704 11.385C2.63162 15.3066 3.29167 18.7081 6.43708 18.7079C6.52173 18.7079 6.60857 18.7054 6.69692 18.7005H9.3419C12.0848 18.7005 15.0248 15.7496 16.5957 13.0078C17.1508 12.0391 17.0864 10.9962 16.4319 10.3508ZM15.814 12.5598C14.3222 15.1635 11.6201 17.7994 9.34194 17.7994H6.68383C6.67494 17.7994 6.66606 17.7996 6.65717 17.8002C4.18042 17.9453 3.59061 15.5183 2.75493 11.2132C2.48153 9.80498 2.17172 8.20877 1.72638 6.63273C1.67605 6.45463 1.6991 6.26685 1.79114 6.10394C1.88565 5.93671 2.03973 5.81674 2.22556 5.76605C2.28479 5.74978 2.34725 5.74155 2.41105 5.74155C2.7302 5.74155 3.0116 5.95661 3.09776 6.27267L4.26454 10.258C4.33431 10.4961 4.5828 10.6331 4.82171 10.5643C5.06008 10.4957 5.19806 10.2472 5.13039 10.0085L3.33435 3.67828C3.23157 3.30118 3.45481 2.91068 3.83239 2.80759C3.89399 2.7907 3.95672 2.78216 4.01876 2.78216C4.33722 2.78216 4.61825 2.99757 4.70352 3.31043L6.38313 9.23911C6.39158 9.47037 6.57479 9.6588 6.8076 9.67209C7.04624 9.68687 7.25373 9.51084 7.28093 9.27357L8.08738 2.22817C8.13305 1.87519 8.43487 1.609 8.7894 1.609C8.81781 1.609 8.84835 1.61112 8.88136 1.61525C9.06931 1.63948 9.23658 1.73563 9.35229 1.88587C9.46774 2.03573 9.5178 2.22135 9.49247 2.41559L8.64467 9.82435C8.6165 10.0705 8.7924 10.2933 9.03843 10.3229C9.28428 10.3527 9.50822 10.1779 9.53928 9.93201L10.2185 4.55501C10.2641 4.20254 10.5656 3.93672 10.9196 3.93672C10.9482 3.93672 10.9801 3.93888 11.0124 3.94293C11.4004 3.993 11.6753 4.34914 11.626 4.73118C11.5967 4.93735 10.9068 9.80685 10.7554 12.0321C10.7081 12.7293 11.0688 13.2478 11.745 13.4549C12.4653 13.6756 13.0526 13.1301 13.2901 12.767C13.2979 12.7547 14.0707 11.531 14.3296 11.1301C14.5553 10.7809 14.8755 10.7076 15.1044 10.7076C15.3663 10.7076 15.6129 10.8086 15.7989 10.9921L15.7991 10.9923C16.2298 11.4168 16.0762 12.102 15.814 12.5598Z" fill="white"/>
</svg>
